<?xml version="1.0" encoding="UTF-8" standalone="no"?>
<svg xmlns:dc="http://purl.org/dc/elements/1.1/"
   xmlns:cc="http://creativecommons.org/ns#"
   xmlns:rdf="http://www.w3.org/1999/02/22-rdf-syntax-ns#"
   xmlns:svg="http://www.w3.org/2000/svg"
   xmlns="http://www.w3.org/2000/svg"
   xmlns:sodipodi="http://sodipodi.sourceforge.net/DTD/sodipodi-0.dtd"
   xmlns:inkscape="http://www.inkscape.org/namespaces/inkscape" width="85.388206mm" height="92.604164mm" viewBox="0 0 85.388206 92.604164" version="1.1" id="svg1903" inkscape:version="1.0.2 (e86c870879, 2021-01-15)" sodipodi:docname="catx.svg">
   <defs id="defs1897" />
   <sodipodi:namedview id="base" pagecolor="#ffffff" bordercolor="#666666" borderopacity="1.0" inkscape:pageopacity="0.0" inkscape:pageshadow="2" inkscape:zoom="0.35" inkscape:cx="141.36355" inkscape:cy="297.85714" inkscape:document-units="mm" inkscape:current-layer="layer1" inkscape:document-rotation="0" showgrid="false" inkscape:window-width="1366" inkscape:window-height="715" inkscape:window-x="-8" inkscape:window-y="-8" inkscape:window-maximized="1" fit-margin-top="0" fit-margin-left="0" fit-margin-right="0" fit-margin-bottom="0" />
   <metadata id="metadata1900">
      <rdf:RDF>
         <cc:Work rdf:about="">
            <dc:format>image/svg+xml</dc:format>
            <dc:type rdf:resource="http://purl.org/dc/dcmitype/StillImage" />
            <dc:title></dc:title>
         </cc:Work>
      </rdf:RDF>
   </metadata>
   <g inkscape:label="Layer 1" inkscape:groupmode="layer" id="layer1" transform="translate(-68.430894,-69.358631)">
      <g id="g1851" transform="matrix(0.15442969,0,0,0.15442969,-21.135468,43.210162)">
         <g aria-label="X " transform="matrix(8.3001581,2.8106817,-2.8106817,8.3001581,-1566.5838,-4719.6846)" id="text906" style="font-style:normal;font-variant:normal;font-weight:normal;font-stretch:normal;font-size:40px;line-height:1.25;font-family:'Agency FB';-inkscape-font-specification:'Agency FB';letter-spacing:0px;word-spacing:0px;white-space:pre;shape-inside:url(#rect908);fill:#800080;fill-opacity:1;stroke:#000000;stroke-opacity:1">
            <path d="m 444.38866,509.51395 -14.83333,-7 14.75,-26.66665 -23.54166,-19.83333 8.04167,-11.41666 22.45832,20.29166 11.79166,-23.58333 12.45833,4.83334 -14.45833,26.99998 20.20833,17.91666 -9.70833,8.79167 -17.33333,-14.875 z" style="font-style:normal;font-variant:normal;font-weight:normal;font-stretch:normal;font-size:85.3333px;font-family:Bocah;-inkscape-font-specification:Bocah;fill:#800080;fill-opacity:1;stroke:#000000;stroke-opacity:1" id="path1363" />
         </g>
         <path id="path3191-4" style="fill:#ffffff" d="m 809.0413,731.16355 c -0.6875,-0.0634 -4.0536,-0.288 -7.0982,-0.49906 -12.778,-0.88581 -19.133,-2.3639 -27.226,-4.5436 -8.2103,-2.2112 -11.644,-4.1314 -18.79,-9.111 -9.5849,-6.6788 -11.494,-7.4752 -22.185,-20.372 -5.8896,-7.1048 -7.1156,-9.7098 -9.7436,-15.27 -4.2321,-8.9542 -6.0259,-17.201 -5.777,-26.002 0.13294,-4.6992 0.72833,-5.6745 2.0556,-10.536 0.80443,-2.9464 2.2423,-6.07303 2.59932,-9.04331 l 0.89682,-7.46109 c 2.81247,-5.42273 -0.78691,-10.81365 -2.08995,-15.88193 -3.91923,-9.33368 -16.2367,-62.75926 -1.52485,-69.92458 10.36351,-5.04748 40.49732,7.56537 62.07262,20.54628 9.00978,-1.94947 43.32421,-6.93853 60.16525,-4.56498 0.63701,-0.93286 0.97843,-0.66289 1.51113,-0.51559 0.39286,0.10866 4.6786,1.4675 8.7054,2.7469 11.405,3.6237 16.699,6.1838 24.958,14.479 6.2956,6.3227 4.752,6.098 7.0056,5.5825 1.9205,-0.43929 6.0087,0.0872 9.9557,0.8987 1.375,0.28269 3.7068,0.57885 3.9267,0.65813 0.25662,0.0925 -0.23335,3.9261 -0.88774,5.2625 -1.566,3.1981 -1.7383,5.8764 -1.4903,11.904 0.11312,2.75 1.1276,5.8304 1.436,7.0089 1.722,6.5815 8.1158,14.399 14.641,19.875 3.5349,2.9668 7.4142,6.4417 9.9274,7.6006 1.0357,0.47764 3.3572,3.3023 3.3036,3.4397 -0.0536,0.13739 -3.9724,4.1447 -7.5081,7.541 -5.3999,5.187 -11.746,9.2224 -12.617,9.2224 -0.10765,0 -0.59751,-3.1624 -0.59751,-4.7904 0,-3.7624 -0.24876,-10.131 -0.79056,-10.783 -0.5572,-0.67139 -0.84096,-0.81037 -1.4161,-0.11737 -0.37916,0.45686 0.33345,0.5977 0.70528,3.5714 0.67228,5.3789 0.66011,17.79 0.20315,24.709 -0.59245,8.9712 2.9841,18.22115 -1.479,29.33815 -6.0732,15.127 -16.4973,18.52785 -24.8003,24.00285 -4.1867,2.7606 -5.8927,2.1743 -11.083,0.18454 -4.8954,-1.8767 -8.2018,-1.6778 -15.554,0.85723 -6.2358,2.1502 -10.888,5.1734 -13.549,7.9137 -1.1966,1.2321 -2.536,1.4262 -6.0851,1.7904 -3.3042,0.33908 -15.799,0.70817 -18.964,0.41613 l -1.4286,-0.40178 z m -0.106,-21.879 c 0,-0.84476 0.0232,-0.47947 -2.3422,-0.70379 -4.0901,-0.38792 -6.8181,-1.5276 -9.6444,-4.4763 -1.3914,-1.4517 -1.63,-1.647 -3.0062,-0.66702 -0.52539,0.37411 -1.8181,0.95211 -2.8342,1.2844 -1.5376,0.50293 -2.3969,0.56381 -3.4798,0.20642 -1.7957,-0.59263 -3.9661,-2.6349 -4.7671,-4.4456 -0.44907,-1.0152 -0.62715,-1.2338 -1.0796,-1.2338 -1.9503,0 -0.28965,1.8084 2.3242,4.4133 3.1482,3.1374 4.5445,2.0731 8.941,1.3011 l 2.108,-1.0804 1.6324,1.4696 c 3.2306,2.9086 6.1594,4.6353 10.063,4.5265 2.2208,-0.0619 2.0847,0.25963 2.0847,-0.59454 z m 44.23,-9.5655 c 0.79462,-1.2218 1.2134,-2.6546 0.95958,-3.316 -0.34557,-0.90054 -0.68277,-0.36968 -0.95027,0.59282 -0.12283,0.44196 -0.25462,1.09 -0.56568,1.8222 -0.45925,1.0809 -0.72624,0.74135 -0.35968,1.183 0.63441,0.76442 0.30692,0.65458 0.91605,-0.28197 z m -9.9814,-1.1769 c 0.56499,-0.47541 0.82295,-0.76868 1.2007,-1.4702 0.65938,-1.2244 0.66134,-0.49699 0.0489,-1.0999 -0.61015,-0.60064 0.0668,-0.16288 -1.6084,1.7157 -1.8628,2.089 -1.7783,1.0586 -1.1003,1.7366 0.59509,0.59509 -0.43947,0.7387 0.72245,-0.25723 l 0.3125,-0.26785 z m 4.372,-0.54188 c 2.5011,-2.7226 3.0498,-3.2366 1.3426,-3.2366 -0.58097,0 -0.54005,0.61957 -1.3952,1.7798 -0.6762,0.91752 -1.1077,1.5251 -1.2863,1.7595 -0.4687,0.61507 -0.43453,0.67943 0.33596,0.67943 0.36227,0 0.50664,-0.44197 1.0029,-0.98215 z m 6.5484,-12.356 c 8.0872,-3.6711 8.5595,-7.7699 2.2092,-14.044 -4.2392,-4.1885 -6.6324,-3.8258 -11.627,-0.51726 -3.3454,2.2159 -3.0768,2.6821 -3.7197,5.5286 -1.0731,4.752 -2.9525,2.4599 -0.75207,5.5371 3.6344,5.0824 8.3914,5.9918 13.89,3.4958 z m -105,-0.62331 c -0.7918,-2.6931 1.3718,-2.7391 -0.39477,-0.62303 -1.3819,1.6553 -2.0556,1.4817 -0.61718,1.4817 0.34675,0 0.71728,0.0913 1.1235,-0.47924 z m -4.5818,-0.99418 c 1.1616,-0.85884 1.2781,-1.0148 0.34058,-1.3746 -0.75076,-0.28809 -1.4042,0.39125 -1.4042,1.2441 0,1.3422 -0.47723,1.2696 1.0636,0.13044 z m -4.5726,-0.96298 c 2.2595,-1.1539 1.844,-1.1902 1.6481,-1.939 -0.25351,-0.96938 0.73115,-0.48387 -1.0186,0.5938 -0.78571,0.48394 -2.072,0.86257 -2.4219,0.8687 -0.72427,0.0127 -0.96787,0.0208 -0.6632,0.81472 0.27017,0.70404 1.0269,0.39141 2.4555,-0.33818 z m 22.316,-13.536 c 9.6668,-4.3382 9.2999,-11.44 -0.3997,-15.826 -1.8057,-0.81648 -2.7283,-0.12681 -4.8809,-0.14192 -1.4732,-0.0104 -2.5274,1.6074 -3.3247,1.8488 -1.7655,0.5347 -1.6304,-0.61334 -3.5227,1.2231 -1.2069,1.1713 -0.20402,0.92168 -0.73829,3.3231 -1.196,5.3757 -1.2816,5.8035 1.983,9.0681 3.7956,3.7956 4.9119,4.1724 9.9012,1.9333 z" sodipodi:nodetypes="cssssssssccscccsssscssssscssssccssssssscccsssscssssscsssscsssscccscscccccsscssccsssccccccccssccsssccscscsscssscc" inkscape:connector-curvature="0" />
         <path id="path3275-6" style="fill:#e6e6e6" d="m 902.9113,673.25355 c -0.42,0.04 -0.81,0.33 -1.06,0.87 -0.1,0.22 -0.21,0.41 -0.32,0.63 -0.2,0.41 -0.41,0.83 -0.62,1.24 -0.21,0.42 -0.41,0.84 -0.63,1.26 -0.22,0.42 -0.43,0.85 -0.65,1.28 -0.23,0.43 -0.46,0.88 -0.69,1.31 -0.24,0.44 -0.48,0.9 -0.72,1.34 -0.25,0.46 -0.51,0.92 -0.75,1.38 -0.25,0.47 -0.5,0.96 -0.75,1.43 -0.25,0.49 -0.49,0.96 -0.75,1.44 -0.25,0.48 -0.52,0.97 -0.78,1.44 -0.24,0.43 -0.49,0.86 -0.75,1.28 -0.24,0.41 -0.5,0.81 -0.75,1.22 -0.25,0.41 -0.49,0.84 -0.75,1.25 -0.26,0.42 -0.52,0.83 -0.78,1.25 -0.27,0.42 -0.55,0.83 -0.81,1.25 -0.27,0.43 -0.55,0.88 -0.82,1.31 -0.26,0.43 -0.51,0.86 -0.78,1.28 -0.27,0.43 -0.56,0.83 -0.84,1.25 -0.27,0.42 -0.53,0.85 -0.81,1.25 -0.28,0.4 -0.56,0.8 -0.85,1.19 -0.29,0.4 -0.61,0.8 -0.9,1.19 -0.3,0.39 -0.58,0.77 -0.88,1.16 -0.3,0.37 -0.6,0.75 -0.91,1.12 -0.31,0.37 -0.61,0.76 -0.93,1.12 -0.31,0.36 -0.62,0.69 -0.94,1.04 -0.32,0.34 -0.65,0.69 -0.97,1.03 -0.31,0.32 -0.62,0.64 -0.94,0.97 -0.31,0.31 -0.65,0.62 -0.96,0.93 -0.32,0.31 -0.65,0.64 -0.97,0.94 -0.31,0.29 -0.6,0.57 -0.91,0.85 -0.31,0.27 -0.62,0.54 -0.94,0.81 -0.31,0.27 -0.65,0.55 -0.97,0.81 -0.31,0.25 -0.61,0.5 -0.93,0.75 -0.32,0.25 -0.65,0.48 -0.97,0.72 -0.33,0.24 -0.67,0.51 -1,0.75 -0.33,0.24 -0.64,0.45 -0.97,0.69 -0.3,0.21 -0.6,0.42 -0.91,0.62 -0.29,0.19 -0.6,0.38 -0.9,0.56 -0.3,0.18 -0.61,0.34 -0.91,0.5 -0.31,0.17 -0.59,0.35 -0.91,0.5 -0.28,0.15 -0.58,0.28 -0.87,0.41 -0.28,0.13 -0.56,0.26 -0.84,0.38 -0.29,0.11 -0.57,0.2 -0.85,0.31 -0.26,0.1 -0.55,0.2 -0.81,0.31 -0.24,0.1 -0.48,0.22 -0.72,0.31 -0.18,0.07 -0.35,0.13 -0.53,0.19 -0.14,0.04 -0.27,0.08 -0.41,0.12 -0.11,0.04 -0.23,0.07 -0.34,0.1 -0.04,0.01 -0.1,0.04 -0.03,0.03 -1.87,0.3 -1.47,2.93 0.4,2.63 0.12,-0.02 0.24,-0.04 0.35,-0.07 0.11,-0.03 0.23,-0.06 0.34,-0.09 0.17,-0.05 0.34,-0.11 0.5,-0.16 0.24,-0.08 0.48,-0.18 0.72,-0.28 0.24,-0.1 0.48,-0.18 0.72,-0.28 0.05,-0.02 0.1,-0.04 0.16,-0.06 0.66,0.29 1.54,0.67 2.28,0.97 1.95,0.78 2.25,0.78 3.15,0.09 0.4,-0.3 1.68,-1.11 2.85,-1.81 3.46,-2.08 5.6,-3.71 8.46,-6.47 4.79,-4.61 8.61,-10.37 12.72,-19.1 2,-4.24 4.69,-10.57 4.6,-10.84 -0.02,-0.05 -0.24,0.25 -0.6,0.78 0.03,-0.04 0.04,-0.08 0.07,-0.12 0.24,-0.46 0.47,-0.92 0.71,-1.38 0.24,-0.44 0.49,-0.89 0.72,-1.34 0.24,-0.44 0.49,-0.87 0.72,-1.31 0.23,-0.44 0.44,-0.88 0.66,-1.32 0.22,-0.42 0.44,-0.82 0.66,-1.25 0.22,-0.43 0.41,-0.87 0.62,-1.31 0.11,-0.22 0.21,-0.43 0.31,-0.65 0.55,-1.19 -0.42,-2.11 -1.34,-2 z" />
         <path id="path3181-7" style="fill:#ffffff" inkscape:connector-curvature="0" d="m 940.6013,754.64355 c -1.3357,-4.9018 -5.5733,-15.368 -9.1902,-22.697 l -1.8615,-3.7723 0.34011,-0.17704 c 0.56355,-0.29335 0.97762,-0.83401 1.0839,-1.4153 0.13892,-0.7597 -0.25534,-1.8278 -1.5624,-4.233 -1.8758,-3.4516 -3.5108,-5.8616 -5.2992,-7.8108 l -0.79065,-0.86177 1.2999,-1.3056 c 1.5848,-1.5916 2.0893,-2.2748 5.3664,-7.2658 5.8527,-8.9137 8.1034,-13.821 10.313,-22.486 0.75063,-2.9432 1.4258,-6.081 1.85,-8.5981 0.19429,-1.1528 0.36813,-2.1109 0.3863,-2.1291 0.10707,-0.10707 3.5854,4.0552 5.4869,6.5659 3.0705,4.0541 5.7824,10.411 7.7274,18.114 1.6422,6.5036 1.8375,10.766 0.95253,20.793 -0.64563,7.3154 -1.2734,10.547 -3.0578,15.741 -0.91006,2.649 -1.7203,4.53 -3.4014,7.8966 -2.7071,5.4211 -5.315,9.7716 -7.8408,13.08 -1.5176,1.9879 -1.4224,1.9582 -1.803,0.56168 z" />
         <path id="path3179-9" style="fill:#ffffff" inkscape:connector-curvature="0" d="m 911.5813,766.70355 c -6.8865,-0.61991 -13.014,-2.0261 -18.698,-4.2913 -1.8516,-0.73786 -5.0251,-2.3685 -6.4985,-3.3392 -3.5483,-2.3376 -7.3814,-7.4112 -8.8008,-11.649 -0.1834,-0.54756 -0.49178,-1.741 -0.6853,-2.6522 -0.30648,-1.4431 -0.36078,-2.0679 -0.42121,-4.8468 -0.0767,-3.5274 0.005,-4.4698 0.64488,-7.4185 1.0447,-4.8161 2.5063,-8.0452 5.7021,-12.598 1.2657,-1.803 5.7501,-5.9394 9.2337,-8.517 3.9417,-2.9166 6.1515,-3.9683 9.8401,-4.6834 2.5683,-0.49786 4.0524,-0.29671 8.2904,1.1238 4.8037,1.6101 7.0256,2.5856 8.9116,3.9128 1.377,0.96902 4.1762,3.4819 5.228,4.6933 1.5203,1.7509 3.2402,4.4836 4.8668,7.7326 0.779,1.5559 1.2054,2.0885 1.8015,2.2503 0.20765,0.0564 0.71529,0.97526 2.0314,3.677 1.9974,4.1005 2.392,4.9795 4.5035,10.032 2.5057,5.9963 3.407,8.5168 4.4258,12.377 l 0.53101,2.0119 -1.0324,0.97287 c -2.7467,2.5882 -6.2533,5.1204 -8.9931,6.4942 -3.5884,1.7993 -9.746,3.8815 -13.256,4.4827 -1.1566,0.19809 -6.2781,0.35521 -7.6254,0.23393 z" />
         <path id="path3253-8" style="fill:#e6e6e6" inkscape:connector-curvature="0" d="m 910.3013,765.22355 c -9.9534,-0.71724 -20.837,-4.3105 -26.418,-8.7222 -2.9011,-2.2932 -6.5995,-7.9216 -7.5123,-11.433 -0.21747,-0.83645 -0.36771,-1.5208 -0.33387,-1.5208 0.0338,0 1.183,0.48737 2.5537,1.083 5.5145,2.3965 10.902,3.9059 15.981,4.4775 8.7094,0.98009 21.7,-1.5625 31.342,-6.1343 10.371,-4.9177 15.925,-9.3903 20.063,-16.157 3.9633,-6.4813 5.971,-12.837 6.3018,-19.951 0.30005,-6.4527 -1.1854,-11.88 -4.5505,-16.626 -1.5647,-2.2066 -4.3211,-4.7218 -5.7893,-5.2825 -0.66735,-0.25486 -1.2134,-0.50046 -1.2134,-0.54578 0,-0.0453 0.46598,-1.9729 1.0355,-4.2836 0.56953,-2.3107 1.2485,-5.4601 1.5088,-6.9987 l 0.47329,-2.7974 1.07,1.2078 c 2.266,2.5579 4.8736,6.0026 6.0192,7.9517 2.5911,4.4081 4.9989,11.168 6.3459,17.816 0.52859,2.6089 0.60447,3.7456 0.58846,8.8139 -0.0199,6.3023 -0.59072,13.091 -1.4664,17.44 -1.88,9.3374 -9.2945,23.691 -15.382,29.779 -4.8507,4.8507 -9.5425,7.6591 -16.723,10.01 -5.5251,1.809 -8.744,2.2425 -13.893,1.8715 z" />
         <path id="path3173-7" style="fill:#ffffff" inkscape:connector-curvature="0" d="m 921.8513,712.55355 c -2.4926,-1.8469 -5.7706,-3.2958 -11.927,-5.2716 -2.9246,-0.93863 -3.8978,-1.1098 -6.2618,-1.1016 -2.1871,0.008 -3.789,0.27969 -6.3298,1.075 -1.7085,0.53478 -4.4857,1.9164 -6.2388,3.1036 -0.84838,0.57454 -1.5665,1.0446 -1.5957,1.0446 -0.0293,0 0.36535,-0.6931 0.87696,-1.5402 2.6021,-4.3085 5.2559,-10.032 8.5679,-18.478 4.7355,-12.077 6.1489,-19.039 6.1489,-30.291 0,-2.1053 0.0391,-4.2025 0.087,-4.6603 0.0846,-0.80966 0.10048,-0.83677 0.57853,-0.99225 0.66317,-0.21568 3.6834,-1.9072 4.7795,-2.6768 1.7186,-1.2068 3.2437,-2.5825 7.4225,-6.6954 2.323,-2.2864 5.3552,-5.1342 6.7382,-6.3284 1.383,-1.1942 3.0353,-2.6248 3.6717,-3.1792 2.0299,-1.7682 5.3391,-5.1118 6.534,-6.602 l 1.1571,-1.443 0.17771,0.50402 c 0.70358,1.9955 3.0076,10.907 3.6954,14.293 0.66131,3.2558 1.3788,9.5082 1.6329,14.23 0.25026,4.6498 0.32717,11.05 0.15567,12.954 -0.56156,6.2354 -2.7683,15.878 -4.8423,21.16 -1.815,4.6218 -3.6754,7.9761 -8.3096,14.982 -2.2338,3.3769 -2.7463,4.0603 -3.9557,5.2748 -0.76418,0.76741 -1.4724,1.3928 -1.5738,1.3898 -0.10145,-0.003 -0.6367,-0.34067 -1.1895,-0.75029 z" />
         <path id="path3259-7" style="fill:#e6e6e6" d="m 935.1613,629.28355 c -0.07,-0.08 -0.59,0.48 -1.19,1.25 -0.59,0.76 -2.29,2.54 -3.75,3.96 l -2.47,2.41 c -0.03,-0.02 -0.06,-0.05 -0.09,-0.06 -0.2,-0.09 -0.38,-0.17 -0.6,-0.19 -1.81,-0.21 -2.17,2.26 -0.5,2.63 0.04,0.01 0.07,0.04 0.1,0.06 0.09,0.06 0.19,0.12 0.28,0.19 0.13,0.1 0.25,0.23 0.38,0.34 0.15,0.13 0.31,0.25 0.46,0.38 0.16,0.12 0.29,0.27 0.44,0.4 0.17,0.15 0.34,0.29 0.5,0.44 0.17,0.16 0.34,0.33 0.5,0.5 0.17,0.17 0.31,0.35 0.47,0.53 0.17,0.19 0.34,0.37 0.5,0.56 0.17,0.21 0.31,0.44 0.47,0.66 0.17,0.23 0.34,0.45 0.5,0.69 0.16,0.23 0.31,0.47 0.47,0.72 0.16,0.25 0.31,0.52 0.47,0.78 0.16,0.28 0.31,0.56 0.46,0.84 0.16,0.28 0.33,0.55 0.47,0.84 0.15,0.3 0.28,0.61 0.41,0.91 0.14,0.32 0.25,0.64 0.38,0.97 0.12,0.34 0.26,0.71 0.37,1.06 0.12,0.38 0.23,0.75 0.34,1.13 0.11,0.38 0.21,0.77 0.32,1.15 0.1,0.39 0.18,0.77 0.28,1.16 0.09,0.39 0.19,0.79 0.28,1.19 0.08,0.39 0.17,0.78 0.25,1.18 0.08,0.4 0.14,0.82 0.22,1.22 0.07,0.41 0.12,0.81 0.18,1.22 0.07,0.41 0.16,0.81 0.22,1.22 0.06,0.4 0.08,0.81 0.13,1.22 0.04,0.4 0.09,0.78 0.12,1.19 0.04,0.4 0.07,0.81 0.1,1.22 0.02,0.39 0.05,0.78 0.06,1.18 0.01,0.4 0.02,0.82 0.03,1.22 0.01,0.41 0,0.82 0,1.22 0,0.41 -0.02,0.81 -0.03,1.22 -0.01,0.42 -0.03,0.83 -0.03,1.25 -0.01,0.43 0,0.88 0,1.31 -0.01,0.44 -0.02,0.85 -0.03,1.28 -0.01,0.43 -0.02,0.86 -0.03,1.28 -0.02,0.42 -0.02,0.84 -0.04,1.25 -0.01,0.41 -0.03,0.82 -0.06,1.22 -0.02,0.41 -0.06,0.81 -0.09,1.22 -0.03,0.41 -0.04,0.81 -0.06,1.22 -0.03,0.4 -0.07,0.81 -0.1,1.22 -0.02,0.39 -0.03,0.79 -0.06,1.19 -0.03,0.39 -0.06,0.76 -0.09,1.15 -0.04,0.39 -0.09,0.8 -0.13,1.19 -0.04,0.39 -0.08,0.79 -0.12,1.19 -0.05,0.38 -0.08,0.77 -0.13,1.15 -0.05,0.38 -0.1,0.75 -0.16,1.13 -0.05,0.37 -0.1,0.75 -0.15,1.12 -0.05,0.37 -0.1,0.73 -0.16,1.1 -0.06,0.36 -0.12,0.7 -0.19,1.06 -0.05,0.35 -0.11,0.71 -0.18,1.06 -0.07,0.36 -0.15,0.71 -0.22,1.07 -0.07,0.34 -0.17,0.68 -0.25,1.03 -0.08,0.34 -0.17,0.66 -0.25,1 -0.09,0.34 -0.16,0.69 -0.25,1.03 -0.09,0.33 -0.16,0.64 -0.25,0.97 -0.02,0.05 -0.05,0.13 -0.06,0.18 -0.5,1.83 2.09,2.52 2.59,0.69 0.01,-0.05 0.02,-0.1 0.03,-0.16 0.09,-0.33 0.19,-0.69 0.28,-1.03 0.09,-0.34 0.17,-0.68 0.25,-1.03 0.09,-0.35 0.2,-0.71 0.28,-1.06 0.09,-0.36 0.15,-0.7 0.22,-1.06 0.08,-0.36 0.18,-0.73 0.25,-1.1 0.08,-0.37 0.13,-0.75 0.19,-1.12 0.06,-0.37 0.13,-0.76 0.19,-1.13 0.06,-0.37 0.13,-0.74 0.18,-1.12 0.06,-0.38 0.11,-0.78 0.16,-1.16 0.04,-0.3 0.09,-0.6 0.13,-0.9 0.51,-1.84 1.78,-7.83 2.21,-10.75 0.47,-3.14 0.56,-7.24 0.32,-13.13 -0.29,-7.06 -0.88,-12.93 -1.72,-17.31 -0.76,-3.92 -3.64,-14.93 -4,-15.31 z" />
         <path id="path3171-2" style="fill:#ffffff" inkscape:connector-curvature="0" d="m 849.6313,748.98355 c -5.5636,-0.23 -9.129,-1.1056 -11.836,-2.9068 -1.2759,-0.84893 -3.092,-2.5893 -3.6454,-3.4935 -0.18571,-0.30339 -0.48186,-1.0045 -0.65812,-1.5579 -0.55991,-1.7582 -0.38254,-6.5732 0.29125,-7.9066 0.49344,-0.97645 1.7222,-2.5872 2.5341,-3.322 2.3701,-2.1448 7.2778,-4.9003 11.989,-6.7311 9.224,-3.5848 14.789,-3.9852 20.403,-1.468 0.77446,0.34725 3.06515,-1.90033 3.85585,-1.59932 2.63,1.0011 6.23047,0.074 8.33097,-1.36452 1.1471,-0.78556 17.62874,-6.24491 17.77704,-6.24491 0.0452,0 -17.31472,8.53033 -17.89754,9.69654 -1.2176,2.4363 -2.0617,4.7416 -2.7504,7.5112 -0.99165,3.9881 -1.2526,5.858 -1.2769,9.1485 l -0.0182,2.4638 -0.44103,0.15956 c -0.24255,0.0878 -0.79242,0.4229 -1.2219,0.74477 -1.7764,1.3312 -4.6673,2.7686 -8.4,4.1766 -5.7039,2.1515 -10.77,2.9526 -17.035,2.6936 z" sodipodi:nodetypes="sssssccssssssscsssss" />
         <path id="path3257-2" style="fill:#e6e6e6" inkscape:connector-curvature="0" d="m 847.3513,748.85355 c -2.4183,-0.25266 -5.4462,-0.88705 -6.9464,-1.4554 -2.6047,-0.9868 -6.0855,-3.8399 -6.8151,-5.5862 -0.16846,-0.40318 -0.30628,-0.77249 -0.30628,-0.82069 0,-0.0483 0.55795,0.13772 1.2399,0.41318 5.0427,2.0368 15.171,3.3822 21.497,2.8554 5.9229,-0.49326 10.025,-1.7738 20.939,-6.5359 l 1.001,-0.43679 v 1.8891 c 0,1.4682 -0.065,1.8892 -0.2916,1.8892 -0.16038,0 -0.91389,0.4261 -1.6745,0.94688 -4.086,2.7978 -11.053,5.46 -17.106,6.5366 -2.2702,0.40383 -8.9094,0.57915 -11.537,0.30467 z" />
         <path id="path3169-7" style="fill:#ffffff" inkscape:connector-curvature="0" d="m 733.9713,730.90355 c -0.36146,-0.9507 -0.89484,-3.0798 -1.2281,-4.9022 -0.75682,-4.1388 -0.81442,-5.2291 -0.95361,-18.049 -0.0718,-6.6143 -0.1074,-12.049 -0.0791,-12.077 0.0597,-0.0597 1.7924,2.0144 5.2138,6.241 3.6443,4.5019 8.4936,9.6636 10.904,11.606 1.6316,1.315 7.2827,5.4344 10.385,7.5701 1.5012,1.0335 2.7108,1.8979 2.6879,1.9208 -0.0229,0.0229 -0.85745,0.10867 -1.8546,0.19067 -5.1684,0.42495 -8.3368,1.0386 -12.312,2.3844 -4.0598,1.3746 -9.2575,3.601 -11.567,4.9548 -0.5035,0.2951 -0.94637,0.53653 -0.98415,0.53653 -0.0378,0 -0.13296,-0.16898 -0.21148,-0.3755 z" />
         <path id="path3163-9" style="fill:#e9afdd" inkscape:connector-curvature="0" d="m 758.7613,743.80355 c -5.3868,-0.39647 -11.875,-2.6242 -18.84,-6.4684 -0.78632,-0.43402 -1.8783,-1.0902 -2.4266,-1.4581 -1.6979,-1.1393 -3.6072,-3.0086 -4.7256,-4.6264 l -0.52628,-0.7613 0.81584,-0.69675 c 1.9815,-1.6922 5.2403,-3.293 11.099,-5.4521 1.9887,-0.73284 3.5018,-1.18 5.2992,-1.5661 2.7817,-0.5975 6.59,-0.98607 9.9304,-1.0132 l 2.0079,-0.0163 1.4549,0.8172 c 2.1489,1.207 3.1372,1.8849 4.1177,2.8245 1.3788,1.3212 2.2461,2.7895 2.7601,4.6723 0.21906,0.8024 0.24249,1.1027 0.23342,2.9906 -0.0145,3.0146 -0.38368,5.4788 -1.0034,6.6972 -0.67016,1.3174 -2.2853,2.8094 -3.7382,3.4532 -1.3285,0.58867 -3.6775,0.8081 -6.459,0.60338 z" />
         <path id="path3159-5" style="fill:#e9afdd" inkscape:connector-curvature="0" d="m 924.2813,637.56355 c -1.6826,-0.768 -4.5693,-2.2632 -5.841,-3.0254 -3.2419,-1.943 -7.5508,-5.2023 -10.272,-7.7698 -3.3178,-3.1303 -7.2975,-8.2023 -9.7943,-12.482 -2.5832,-4.4283 -3.4914,-6.9866 -3.9716,-11.188 -0.86276,-7.548 -0.0357,-14.611 2.1488,-18.353 0.47974,-0.82159 1.4053,-2.1066 1.5174,-2.1066 0.0489,0 1.3454,0.32593 2.8812,0.72429 9.0301,2.3423 18.784,5.3149 23.259,7.0882 2.9417,1.1659 9.4322,4.2519 13.526,6.4314 2.7049,1.4399 9.5017,5.391 11.029,6.4113 0.12617,0.0843 -1.3723,3.714 -2.2646,5.4856 -0.86991,1.727 -4.8732,8.6055 -6.4647,11.107 -2.7475,4.3195 -4.0184,6.1488 -6.7854,9.7669 -2.9367,3.84 -4.3055,5.3898 -6.7653,7.6596 l -0.90969,0.83944 -1.2926,-0.59 z" />
         <path id="path3264-0" style="fill:#e6e6e6" inkscape:connector-curvature="0" d="m 926.6013,590.14355 c -0.67854,0.0535 -1.3144,0.59681 -1.2388,1.5564 0.0458,0.58074 0.0875,1.1658 0.12705,1.747 0.046,0.71202 0.0923,1.4155 0.12706,2.1282 0.0352,0.73737 0.0656,1.4858 0.0953,2.2234 0.0296,0.74935 0.0752,1.4738 0.0953,2.2234 0.0179,0.7299 0.008,1.4615 0,2.1917 -0.004,0.71633 0.009,1.4436 0,2.1599 -0.0118,0.71862 -0.0367,1.4416 -0.0635,2.1599 -0.0261,0.56256 -0.0703,1.1268 -0.15882,1.6835 -0.0793,0.54772 -0.16323,1.074 -0.2541,1.6199 -0.0937,0.5666 -0.18779,1.1494 -0.28587,1.7152 -0.10035,0.57768 -0.21141,1.1386 -0.31764,1.7152 -0.10735,0.58637 -0.21363,1.1918 -0.31763,1.7788 -0.1063,0.58817 -0.20289,1.1604 -0.31764,1.747 -0.11322,0.57638 -0.22552,1.1728 -0.3494,1.747 -0.12553,0.58585 -0.2498,1.1624 -0.38116,1.747 -0.13362,0.59329 -0.29498,1.1893 -0.44469,1.7788 -0.14333,0.55257 -0.29727,1.1096 -0.47645,1.6517 -0.172,0.52944 -0.33122,1.0604 -0.50821,1.5882 -0.17586,0.51924 -0.34832,1.011 -0.53998,1.5246 -0.19204,0.51198 -0.40005,1.0489 -0.60351,1.5564 -0.20959,0.52161 -0.41535,1.0391 -0.63527,1.5564 -0.21306,0.49853 -0.42786,0.97444 -0.66703,1.4611 -0.22254,0.4541 -0.46598,0.91691 -0.6988,1.3658 -0.22965,0.44193 -0.46282,0.89546 -0.69879,1.3341 -0.23536,0.44006 -0.45604,0.86628 -0.6988,1.3023 -0.23133,0.41994 -0.48744,0.82552 -0.73056,1.2388 -0.23245,0.39201 -0.4536,0.79105 -0.69879,1.1752 -0.23645,0.36975 -0.4832,0.74915 -0.73056,1.1117 -0.23287,0.33958 -0.48284,0.6557 -0.73056,0.98467 -0.24733,0.32826 -0.47725,0.661 -0.73056,0.98466 -0.24871,0.32018 -0.51162,0.6343 -0.76232,0.95291 -0.24305,0.30857 -0.48385,0.6155 -0.73056,0.92114 -0.23453,0.29348 -0.45568,0.60295 -0.6988,0.88938 -0.24146,0.28353 -0.48428,0.54649 -0.73056,0.82585 -0.22118,0.25148 -0.46282,0.52455 -0.6988,0.76232 -0.21746,0.21659 -0.43275,0.40497 -0.66703,0.6035 -0.20384,0.1745 -0.41353,0.35675 -0.63527,0.50822 -0.20683,0.14142 -0.41583,0.29159 -0.63527,0.41292 -0.20539,0.11339 -0.42149,0.22067 -0.63527,0.31764 -0.2039,0.0926 -0.39512,0.17208 -0.6035,0.25411 -0.18337,0.0717 -0.3878,0.12044 -0.57174,0.19058 -0.0653,0.0252 -0.12309,0.0764 -0.19058,0.0953 -1.3198,0.38203 -1.293,1.8145 -0.50822,2.414 l -0.82585,0.41293 v 2.2552 2.287 l 1.1752,-0.66703 c 2.2899,-1.2773 4.3532,-3.0048 9.6243,-8.1632 2.8088,-2.7488 5.9147,-5.678 7.1785,-6.7656 0.10469,0.0512 0.5629,0.28545 0.57174,0.28587 0.1447,0.006 2.2416,-1.8473 4.0657,-3.5893 2.9084,-2.7775 7.7143,-8.9809 11.467,-14.802 2.4922,-3.8661 6.4545,-10.601 7.6868,-13.055 0.8705,-1.7333 2.5102,-5.5272 2.414,-5.5904 -0.62615,-0.41207 -6.9878,-4.1339 -8.9573,-5.241 -1.9488,-1.0955 -8.9571,-4.5921 -12.038,-6.0351 -0.11917,-0.88333 -0.80868,-1.2902 -1.4611,-1.2388 z" />
         <path id="path3273-6" d="m 924.2813,637.56355 c -1.6826,-0.768 -4.5693,-2.2632 -5.841,-3.0254 -3.2419,-1.943 -7.5508,-5.2023 -10.272,-7.7698 -3.3178,-3.1303 -7.2975,-8.2023 -9.7943,-12.482 -2.5832,-4.4283 -3.4914,-6.9866 -3.9716,-11.188 -0.86276,-7.548 -0.0357,-14.611 2.1488,-18.353 0.47974,-0.82159 1.4053,-2.1066 1.5174,-2.1066 0.0489,0 1.3454,0.32593 2.8812,0.72429 9.0301,2.3423 18.784,5.3149 23.259,7.0882 2.9417,1.1659 9.4322,4.2519 13.526,6.4314 2.7049,1.4399 9.5017,5.391 11.029,6.4113 0.12617,0.0843 -1.3723,3.714 -2.2646,5.4856 -0.86991,1.727 -4.8732,8.6055 -6.4647,11.107 -2.7475,4.3195 -4.0184,6.1488 -6.7854,9.7669 -2.9367,3.84 -4.3055,5.3898 -6.7653,7.6596 l -0.90969,0.83944 -1.2926,-0.59 z" style="opacity:0.75;fill:#e9afdd" inkscape:connector-curvature="0" />
         <path id="path3101-0" style="fill:#000000" inkscape:connector-curvature="0" d="m 737.8713,682.22355 c -0.0277,-1.7e-4 0.0583,-0.005 0.07,-0.007 0.0529,-0.005 0.10489,-0.0147 0.15687,-0.0249 0.0733,-0.0133 0.14596,-0.0302 0.21779,-0.05 0.0774,-0.0205 0.15321,-0.0459 0.22811,-0.0741 0.0856,-0.0312 0.16683,-0.0727 0.24835,-0.11302 0.10725,-0.0564 0.2139,-0.11403 0.32001,-0.17257 0.12658,-0.0687 0.25268,-0.13826 0.37858,-0.20818 0.13209,-0.0725 0.26258,-0.14779 0.39332,-0.22266 0.14639,-0.0814 0.29167,-0.16468 0.43751,-0.247 0.14614,-0.0839 0.29271,-0.16709 0.43858,-0.25147 0.14971,-0.0851 0.29802,-0.17249 0.44468,-0.26269 0.0706,-0.0438 0.14016,-0.0892 0.20955,-0.1349 1.1192,-0.73564 2.1595,0.8471 1.0404,1.5827 -0.0855,0.0561 -0.17112,0.11206 -0.25815,0.16579 -0.16112,0.099 -0.32381,0.19526 -0.48822,0.28866 -0.15163,0.0877 -0.30391,0.17419 -0.45585,0.26133 -0.14244,0.0804 -0.28429,0.16184 -0.42731,0.2412 -0.13793,0.079 -0.27563,0.15831 -0.41493,0.23485 -0.12775,0.0709 -0.25568,0.14154 -0.38411,0.21124 -0.13078,0.072 -0.26195,0.14335 -0.39472,0.2116 -0.1396,0.069 -0.28009,0.13666 -0.42658,0.19001 -0.13078,0.0484 -0.26303,0.0925 -0.39787,0.12838 -0.11463,0.0304 -0.22998,0.0585 -0.34671,0.0798 -0.10754,0.0209 -0.21559,0.0394 -0.32472,0.0498 -0.0879,0.009 -0.17613,0.0159 -0.26456,0.0168 -1.3393,0 -1.3393,-1.894 0,-1.894 z" />
         <path id="path3103-5" style="fill:#000000" inkscape:connector-curvature="0" d="m 743.3413,683.28355 c -0.065,0.0254 -0.0774,0.0339 -0.11613,0.0582 0.005,-0.005 0.0301,-0.0279 0.0453,-0.0432 0.0538,-0.0526 0.10561,-0.10718 0.15869,-0.16051 0.0794,-0.0798 0.16248,-0.15582 0.2467,-0.23048 0.0831,-0.0741 0.16663,-0.1478 0.25071,-0.22083 0.0896,-0.0754 0.17597,-0.15438 0.26249,-0.23322 0.0745,-0.0688 0.14769,-0.1391 0.22058,-0.20964 0.9625,-0.93128 2.2795,0.4299 1.317,1.3612 -0.0865,0.0837 -0.17336,0.16698 -0.26193,0.24846 -0.0979,0.0892 -0.19578,0.1784 -0.29696,0.26388 -0.0797,0.0691 -0.15871,0.1391 -0.23751,0.20927 -0.0549,0.0483 -0.10891,0.0977 -0.1606,0.14944 -0.0571,0.0569 -0.11203,0.11584 -0.17003,0.17178 -0.075,0.0731 -0.15225,0.1441 -0.23585,0.20737 -0.10636,0.0783 -0.21879,0.1484 -0.34262,0.19604 -1.25,0.48078 -1.9299,-1.287 -0.67992,-1.7678 z" />
         <path id="path3105-1" style="fill:#000000" inkscape:connector-curvature="0" d="m 747.7913,684.71355 c -0.0304,0.014 -0.0684,0.0407 -0.0888,0.055 -0.003,0.004 0.004,-0.006 0.0239,-0.0296 0.0437,-0.0512 0.0857,-0.10388 0.1272,-0.15691 0.0565,-0.072 0.11371,-0.14344 0.16921,-0.21622 0.0605,-0.0781 0.12042,-0.15672 0.1786,-0.23659 0.0591,-0.0815 0.11582,-0.16455 0.17199,-0.24805 0.0595,-0.0895 0.11558,-0.18121 0.17154,-0.27295 0.0416,-0.0693 0.0195,-0.0328 0.0664,-0.10959 0.69769,-1.1432 2.3144,-0.15651 1.6167,0.98669 -0.0422,0.069 -0.0201,0.0326 -0.0662,0.10928 -0.0707,0.11587 -0.14189,0.23144 -0.2173,0.34432 -0.0698,0.10361 -0.14043,0.20663 -0.21385,0.30771 -0.0665,0.0908 -0.13418,0.18068 -0.20322,0.26953 -0.0601,0.0785 -0.12144,0.15596 -0.18264,0.23358 -0.0537,0.0685 -0.10812,0.13636 -0.1643,0.2028 -0.0696,0.0831 -0.14238,0.16372 -0.22393,0.23539 -0.0895,0.0776 -0.18334,0.15064 -0.28923,0.20492 -1.1874,0.61951 -2.0635,-1.0597 -0.87612,-1.6792 z" />
         <path id="path3107-1" style="fill:#000000" inkscape:connector-curvature="0" d="m 782.7213,699.36355 c 0.0208,0.0748 0.0279,0.15209 0.0414,0.22822 0.009,0.0523 0.02,0.10412 0.0323,0.1557 0.0202,0.0823 0.0391,0.16487 0.0609,0.24672 0.0181,0.0687 0.043,0.1353 0.0696,0.20112 0.0387,0.0869 0.082,0.17173 0.12483,0.25667 0.0524,0.1048 0.11001,0.20678 0.16918,0.30786 0.0635,0.1089 0.13411,0.21349 0.20582,0.31713 0.0851,0.12442 0.17216,0.24746 0.26131,0.369 0.092,0.1245 0.18629,0.24723 0.28389,0.36736 0.10131,0.12734 0.2077,0.25042 0.31433,0.37328 0.11025,0.126 0.22282,0.24996 0.33597,0.37335 0.10823,0.11764 0.22006,0.23183 0.33556,0.34232 0.11641,0.11073 0.23833,0.21538 0.36199,0.31787 0.12292,0.0999 0.25103,0.19311 0.38035,0.28448 0.13155,0.0932 0.26859,0.17814 0.40649,0.26149 0.14434,0.0869 0.29185,0.16834 0.44035,0.24789 0.14128,0.0738 0.28699,0.13882 0.43363,0.20114 0.1495,0.0634 0.30219,0.11889 0.45646,0.16944 0.1621,0.0516 0.32485,0.10138 0.48988,0.14272 0.16059,0.0382 0.32353,0.0649 0.48666,0.0895 0.15186,0.0223 0.30519,0.031 0.45854,0.0328 0.16106,8e-5 0.32188,-0.011 0.48218,-0.0257 0.1637,-0.0157 0.3261,-0.0421 0.48805,-0.0702 0.16228,-0.0278 0.32211,-0.0673 0.48169,-0.10741 0.16833,-0.0453 0.33539,-0.0952 0.50235,-0.14528 0.16571,-0.05 0.32969,-0.10544 0.49282,-0.16328 0.1656,-0.0583 0.3293,-0.12185 0.49277,-0.18583 0.15718,-0.0618 0.31102,-0.13154 0.46459,-0.20171 0.15628,-0.0718 0.3111,-0.14659 0.46363,-0.22601 0.15102,-0.0797 0.29992,-0.16323 0.44702,-0.24996 0.15356,-0.0921 0.30575,-0.18646 0.45697,-0.28237 0.15811,-0.10039 0.31334,-0.20518 0.46909,-0.30916 0.17804,-0.12344 0.35986,-0.2407 0.54928,-0.34587 0.37976,-0.21477 0.78926,-0.20439 1.1836,-0.0473 0.16948,0.0777 0.31895,0.18911 0.46141,0.30776 0.12634,0.10481 0.23574,0.22706 0.33913,0.35399 0.0791,0.0989 0.15008,0.20388 0.22607,0.30512 0.0596,0.0784 0.1217,0.15474 0.18605,0.22927 0.0758,0.0887 0.1538,0.17536 0.23247,0.26143 0.0874,0.0955 0.173,0.19264 0.2634,0.28536 0.10193,0.10418 0.20398,0.20827 0.30775,0.31061 0.1006,0.0999 0.20505,0.1959 0.31165,0.28938 0.11994,0.10441 0.24236,0.20597 0.36553,0.30654 0.13144,0.10492 0.26523,0.20689 0.39864,0.3093 0.13674,0.10591 0.27617,0.2083 0.41649,0.30939 0.14494,0.1017 0.29007,0.20316 0.43672,0.30238 0.15794,0.10732 0.31667,0.21349 0.47729,0.31676 0.16341,0.10694 0.32918,0.21016 0.49655,0.31078 0.16417,0.0984 0.33149,0.19142 0.49987,0.28241 0.17056,0.0919 0.34385,0.1786 0.51803,0.26342 0.17593,0.0859 0.35461,0.16586 0.53419,0.24376 0.17877,0.0782 0.35995,0.15049 0.54322,0.21741 0.18142,0.0673 0.36674,0.12266 0.55311,0.17422 0.21535,0.0587 0.43185,0.11311 0.64869,0.16604 0.22577,0.0538 0.4521,0.10526 0.67918,0.15322 0.22402,0.0489 0.45004,0.0872 0.67627,0.12417 0.22837,0.036 0.45732,0.068 0.68664,0.0974 0.22808,0.0287 0.45668,0.0534 0.68547,0.0757 0.22192,0.0217 0.44404,0.0407 0.66668,0.053 0.21614,0.0119 0.43254,0.0173 0.64898,0.017 0.13412,-2.9e-4 0.26809,-0.006 0.40196,-0.014 1.3372,-0.0738 1.4416,1.8174 0.10438,1.8912 -0.16847,0.009 -0.33706,0.0167 -0.50583,0.0168 -0.25182,-8e-5 -0.5036,-0.006 -0.75507,-0.02 -0.24893,-0.014 -0.49735,-0.0345 -0.74547,-0.059 -0.24751,-0.0243 -0.49482,-0.0509 -0.74155,-0.0821 -0.25101,-0.0322 -0.50163,-0.0672 -0.75158,-0.1068 -0.25523,-0.0417 -0.51015,-0.0855 -0.76294,-0.14042 -0.24618,-0.0522 -0.49165,-0.10769 -0.7364,-0.16625 -0.2359,-0.0576 -0.47143,-0.11685 -0.70568,-0.1809 -0.23533,-0.0654 -0.46923,-0.13606 -0.6984,-0.2209 -0.21772,-0.08 -0.43334,-0.16538 -0.64584,-0.25844 -0.20494,-0.089 -0.40883,-0.18044 -0.60963,-0.27849 -0.19816,-0.0966 -0.39529,-0.19536 -0.58933,-0.30005 -0.1938,-0.10486 -0.38637,-0.21203 -0.57531,-0.32547 -0.18373,-0.1106 -0.36588,-0.22377 -0.54536,-0.34116 -0.17285,-0.11138 -0.344,-0.22535 -0.51401,-0.34101 -0.16197,-0.10974 -0.32249,-0.22161 -0.48241,-0.33431 -0.15571,-0.11231 -0.31051,-0.22595 -0.46233,-0.34349 -0.14853,-0.11405 -0.29753,-0.22756 -0.44353,-0.34485 -0.14097,-0.11523 -0.28112,-0.23152 -0.41828,-0.35127 -0.1336,-0.11781 -0.2651,-0.23805 -0.39139,-0.36371 -0.11319,-0.11188 -0.22486,-0.22531 -0.33606,-0.33916 -0.10355,-0.10699 -0.20327,-0.21742 -0.30326,-0.32772 -0.0912,-0.1 -0.1818,-0.20054 -0.26969,-0.30344 -0.0922,-0.10747 -0.18174,-0.21707 -0.26696,-0.33016 -0.0613,-0.0822 -0.12029,-0.16615 -0.18182,-0.2482 -0.0266,-0.0335 -0.0523,-0.0677 -0.0853,-0.0952 -0.0231,-0.02 -0.0821,-0.0616 -0.0152,-0.0282 0.18301,0.0597 0.34785,0.0491 0.52361,-0.0307 0.008,-0.004 -0.0164,0.007 -0.0246,0.0101 -0.14261,0.0754 -0.27311,0.17111 -0.40747,0.25993 -0.16821,0.11229 -0.33593,0.22534 -0.50674,0.33367 -0.1687,0.10687 -0.33838,0.21217 -0.50979,0.31464 -0.17612,0.10363 -0.3543,0.20361 -0.53516,0.29876 -0.18096,0.0938 -0.36418,0.18306 -0.54953,0.2679 -0.18561,0.0848 -0.37182,0.1684 -0.56186,0.24292 -0.18269,0.0714 -0.36563,0.14234 -0.5507,0.2074 -0.19225,0.0679 -0.38545,0.13319 -0.58072,0.19199 -0.19445,0.0583 -0.389,0.1164 -0.58532,0.16812 -0.20534,0.0515 -0.41129,0.10104 -0.6201,0.13669 -0.21232,0.0366 -0.42529,0.0703 -0.63993,0.0902 -0.22735,0.0203 -0.45543,0.0352 -0.68382,0.0332 -0.23784,-0.005 -0.47561,-0.0181 -0.71104,-0.0539 -0.22488,-0.0341 -0.44934,-0.0723 -0.67035,-0.12664 -0.20732,-0.0533 -0.41274,-0.11353 -0.61635,-0.17963 -0.20476,-0.0679 -0.40777,-0.14124 -0.60624,-0.22599 -0.19806,-0.0848 -0.39486,-0.17306 -0.5853,-0.27399 -0.17742,-0.0952 -0.35363,-0.19271 -0.52605,-0.29675 -0.1764,-0.10687 -0.3514,-0.21625 -0.51968,-0.33565 -0.16891,-0.11963 -0.33602,-0.24195 -0.49611,-0.37327 -0.15832,-0.13156 -0.31432,-0.266 -0.46323,-0.40822 -0.14456,-0.13888 -0.28523,-0.2817 -0.42076,-0.42943 -0.12475,-0.13609 -0.24882,-0.27281 -0.37029,-0.41183 -0.1205,-0.13885 -0.24047,-0.27817 -0.35513,-0.42192 -0.11676,-0.14422 -0.23027,-0.29104 -0.34028,-0.44048 -0.0997,-0.13605 -0.19725,-0.27358 -0.29246,-0.41279 -0.0985,-0.14292 -0.19508,-0.28731 -0.28235,-0.43744 -0.0788,-0.13495 -0.15529,-0.27122 -0.22524,-0.411 -0.0676,-0.13421 -0.13556,-0.26845 -0.19277,-0.40751 -0.0544,-0.13737 -0.10437,-0.27656 -0.14172,-0.41966 -0.0259,-0.0989 -0.0497,-0.19832 -0.0736,-0.29773 -0.0212,-0.0912 -0.0411,-0.18274 -0.0562,-0.27518 -0.003,-0.0183 -0.0289,-0.16904 -0.006,-0.0627 -0.33806,-1.2959 1.4946,-1.774 1.8327,-0.47809 z" />
         <path id="path3109-4" style="fill:#000000" inkscape:connector-curvature="0" d="m 844.9713,696.83355 c -0.0286,0.0335 0.007,-0.01 -0.004,0.007 -0.0313,0.0451 -0.0598,0.0921 -0.0888,0.1387 -0.0469,0.0742 -0.0952,0.1475 -0.14219,0.22167 -0.0586,0.0886 -0.11561,0.17821 -0.17396,0.26695 -0.0758,0.11467 -0.15796,0.22489 -0.24085,0.33447 -0.0818,0.10607 -0.16257,0.21294 -0.24339,0.31977 -0.0941,0.12468 -0.19012,0.24794 -0.28674,0.37069 -0.11548,0.14685 -0.23955,0.28661 -0.36636,0.42368 -0.13076,0.1407 -0.26954,0.27352 -0.41086,0.40347 -0.14409,0.13178 -0.29458,0.25624 -0.44815,0.37674 -0.0267,0.0203 -0.0534,0.0405 -0.0801,0.0608 -1.0678,0.80844 -2.2111,-0.70159 -1.1433,-1.51 0.0187,-0.0141 0.0375,-0.0283 0.0562,-0.0424 0.11478,-0.0894 0.22675,-0.18247 0.33446,-0.28034 0.10403,-0.0953 0.2063,-0.19261 0.30264,-0.29577 0.0925,-0.0995 0.18302,-0.20101 0.26724,-0.3077 0.0891,-0.11318 0.17763,-0.22682 0.26443,-0.34178 0.0809,-0.10693 0.16172,-0.2139 0.24361,-0.32006 0.0582,-0.0768 0.11628,-0.15371 0.16975,-0.23389 0.0524,-0.0792 0.10278,-0.15962 0.15557,-0.23852 0.0445,-0.0702 0.09,-0.13971 0.13471,-0.20976 0.048,-0.0769 0.0957,-0.15406 0.14813,-0.22805 0.0542,-0.0752 0.11063,-0.14896 0.17527,-0.21568 0.91958,-0.97368 2.2966,0.32681 1.377,1.3005 z" />
         <path id="path3111-2" style="fill:#000000" inkscape:connector-curvature="0" d="m 849.7613,695.94355 c -0.0197,0.017 0.0149,-0.0119 0.0171,-0.0136 0.007,-0.005 -0.0115,0.0117 -0.0174,0.0175 -0.0314,0.0305 -0.0586,0.0649 -0.087,0.0982 -0.0549,0.0635 -0.10748,0.12889 -0.15968,0.19456 -0.0613,0.0782 -0.11967,0.15867 -0.17888,0.23847 -0.0658,0.0893 -0.12962,0.18021 -0.19305,0.27128 -0.0792,0.11243 -0.15652,0.22612 -0.23554,0.33866 -0.084,0.11925 -0.16685,0.23923 -0.24977,0.3592 -0.0916,0.1322 -0.18379,0.26401 -0.27743,0.3948 -0.10323,0.1438 -0.21061,0.28445 -0.32203,0.42199 -0.11552,0.14608 -0.23862,0.28562 -0.36744,0.42004 -0.13554,0.14007 -0.27974,0.27119 -0.42755,0.39809 -0.0732,0.0626 -0.14876,0.12245 -0.22436,0.18215 -1.0519,0.82898 -2.2242,-0.65862 -1.1724,-1.4876 0.0555,-0.0436 0.11092,-0.0874 0.16473,-0.13315 0.10191,-0.087 0.20127,-0.17691 0.29484,-0.27288 0.0926,-0.0955 0.17923,-0.19621 0.26175,-0.30053 0.0878,-0.10773 0.17154,-0.21848 0.25276,-0.33121 0.0876,-0.12211 0.17348,-0.24535 0.25913,-0.3688 0.0856,-0.12385 0.17123,-0.24775 0.25791,-0.37089 0.0777,-0.11056 0.15361,-0.2224 0.23148,-0.33286 0.0743,-0.10659 0.14904,-0.21296 0.22629,-0.31747 0.072,-0.0969 0.143,-0.19458 0.21795,-0.28925 0.066,-0.0827 0.13234,-0.16522 0.20154,-0.24529 0.0618,-0.0723 0.1234,-0.14496 0.19184,-0.21118 0.0684,-0.0678 0.13911,-0.13339 0.21761,-0.18948 1.0813,-0.7902 2.1988,0.73903 1.1175,1.5292 z" />
         <path id="path3113-6" style="fill:#000000" inkscape:connector-curvature="0" d="m 854.7113,696.59355 c 0.0121,0.0931 0.0128,0.18693 0.0111,0.28058 -0.004,0.0956 -0.0151,0.19052 -0.0269,0.28533 -0.0132,0.0981 -0.029,0.19585 -0.0466,0.29326 -0.0204,0.11281 -0.046,0.22458 -0.0733,0.33587 -0.028,0.1126 -0.0593,0.22437 -0.0913,0.33587 -0.0352,0.11874 -0.0738,0.23643 -0.11342,0.35376 -0.0477,0.1416 -0.10635,0.27906 -0.16862,0.41476 -0.0618,0.13818 -0.13363,0.27153 -0.20843,0.40302 -0.0676,0.11453 -0.13744,0.22768 -0.20541,0.34196 -0.0705,0.11482 -0.14111,0.2296 -0.21131,0.34463 -0.0644,0.10876 -0.13332,0.21473 -0.20376,0.31966 -0.74786,1.111 -2.3191,0.0534 -1.5712,-1.0576 0.0551,-0.0815 0.10838,-0.1642 0.1584,-0.24893 0.0666,-0.10904 0.1333,-0.21801 0.20048,-0.32668 0.0623,-0.1046 0.12582,-0.20851 0.18847,-0.31292 0.048,-0.0833 0.0937,-0.16803 0.1327,-0.25599 0.0349,-0.0751 0.0681,-0.15101 0.0948,-0.22945 0.0304,-0.0894 0.0596,-0.17922 0.0871,-0.26957 0.0255,-0.0887 0.0506,-0.17762 0.073,-0.26722 0.0184,-0.0734 0.0352,-0.14728 0.0488,-0.22175 0.0116,-0.062 0.021,-0.12434 0.0302,-0.18672 0.004,-0.0347 -0.0141,-0.0821 0.0131,-0.10399 0.006,-0.0325 -2.9e-4,0.0303 10e-4,-0.007 -0.15648,-1.3301 1.7246,-1.5514 1.8811,-0.22131 z" />
         <ellipse id="path3151-7" style="fill:#000000" cx="758.68829" cy="662.77441" rx="12.500638" ry="12.690042" />
         <circle id="path3153-9" style="fill:#ffffff" cx="751.74359" cy="658.16565" r="4.6719556" />
         <ellipse id="path3155-4" style="fill:#000000" cx="850.4856" cy="678.43225" rx="12.500638" ry="12.690042" />
         <circle id="path3157-0" style="fill:#ffffff" cx="843.53827" cy="673.82336" r="4.6719556" />
         <path id="path3273-6-7" d="m 761.71799,594.47003 c -17.41442,10.79345 -40.19507,13.66173 -41.29739,12.67023 -9.40514,-10.1036 -7.54918,-33.23325 -6.61361,-46.03954 0.5978,-7.57358 2.76136,-14.34773 5.62167,-17.60247 0.62811,-0.71458 1.7825,-1.79869 1.89253,-1.77724 0.0481,0.009 1.25815,0.5774 2.68931,1.26233 13.6042,-8.12195 39.2605,10.44072 52.66472,16.04131 -4.98574,11.81513 -4.08712,25.10135 -14.95723,35.44538 z" style="opacity:0.75;fill:#e9afdd" inkscape:connector-curvature="0" sodipodi:nodetypes="cccscccc" />
         <path style="fill:none;stroke:#000000;stroke-width:4;stroke-linecap:round;stroke-linejoin:miter;stroke-miterlimit:4;stroke-dasharray:none;stroke-opacity:1" d="m 835.28876,730.23949 c 0,0 -78.80676,16.73405 -108.70869,-45.78337 0,0 -12.88342,-16.44471 -2.80683,-56.13063 -0.37434,-1.49735 2.928,-9.11976 -2.08995,-15.88193 0,0 -47.56325,-123.11342 60.54777,-49.3783 0,0 72.75568,-23.7446 99.52472,17.16658 0,0 38.89087,-0.50508 69.19545,22.72843 0,0 -20.93647,44.99449 -46.07611,52.04421" id="path1333" sodipodi:nodetypes="cccccccc" />
         <path style="fill:none;stroke:#000000;stroke-width:4;stroke-linecap:round;stroke-linejoin:miter;stroke-miterlimit:4;stroke-dasharray:none;stroke-opacity:1" d="m 902.46391,637.81053 c 0,0 2.41121,17.19395 2.41121,17.19395 0,0 4.09547,66.49481 -38.55382,65.30907 0,0 -33.55792,-3.20604 -33.05284,20.02747 0,0 13.18184,21.93889 43.46149,0.86792 0,0 7.29283,47.69079 65.75833,13.30991 0,0 35.46278,-47.12016 1.25474,-84.18708 0,0 -3.60482,27.79157 -20.42166,43.34457 0,0 9.57535,4.35145 6.22824,14.49791" id="path1335" />
         <path style="fill:none;stroke:#000000;stroke-width:4;stroke-linecap:round;stroke-linejoin:miter;stroke-miterlimit:4;stroke-dasharray:none;stroke-opacity:1" d="m 921.85127,712.55433 c 0,0 -24.43812,-22.21586 -42.11579,12.6344" id="path1337" sodipodi:nodetypes="cc" />
         <path style="fill:none;stroke:#000000;stroke-width:4;stroke-linecap:round;stroke-linejoin:miter;stroke-miterlimit:4;stroke-dasharray:none;stroke-opacity:1" d="m 943.74302,670.33177 c 0,0 -0.34991,-29.39002 -7.68253,-41.81477" id="path1339" />
         <path style="fill:none;stroke:#000000;stroke-width:4;stroke-linecap:round;stroke-linejoin:miter;stroke-miterlimit:4;stroke-dasharray:none;stroke-opacity:1" d="m 731.24305,694.88415 c 0,0 -1.536,22.218 0.99977,35.6052 0,0 29.80988,26.01411 37.89111,6.82121 0,0 3.23059,-13.95873 -8.73877,-15.56566" id="path1341" />
      </g>
   </g>
</svg>
